<?xml version="1.0" encoding="utf-8"?>
<!-- Generator: Adobe Illustrator 21.0.2, SVG Export Plug-In . SVG Version: 6.00 Build 0)  -->
<svg version="1.1" id="Layer_1" xmlns="http://www.w3.org/2000/svg" xmlns:xlink="http://www.w3.org/1999/xlink" x="0px"
	y="0px" viewBox="150 150 700 700" style="enable-background:new 0 0 1000 1000;" xml:space="preserve">
	<style type="text/css">
		.st0 {
			clip-path: url(#SVGID_2_);
			fill: #FFFFFF;
		}

		.st1 {
			clip-path: url(#SVGID_4_);
			fill: #FFFFFF;
		}

		.st2 {
			clip-path: url(#SVGID_6_);
			fill: #E82429;
		}

		.st3 {
			clip-path: url(#SVGID_8_);
		}

		.st4 {
			clip-path: url(#SVGID_10_);
		}

		.st5 {
			fill: #E82429;
		}

		.st6 {
			clip-path: url(#SVGID_12_);
			fill: #FFFFFF;
		}

		.st7 {
			clip-path: url(#SVGID_14_);
			fill: #FFFFFF;
		}

		.st8 {
			clip-path: url(#SVGID_16_);
			fill: #FFFFFF;
		}

		.st9 {
			clip-path: url(#SVGID_18_);
			fill: #FFFFFF;
		}

		.st10 {
			clip-path: url(#SVGID_20_);
			fill: #E82429;
		}

		.st11 {
			clip-path: url(#SVGID_22_);
		}

		.st12 {
			clip-path: url(#SVGID_24_);
		}

		.st13 {
			clip-path: url(#SVGID_26_);
		}

		.st14 {
			clip-path: url(#SVGID_28_);
		}
	</style>
	<g>
		<defs>
			<path id="SVGID_21_" d="M379.6,579.5l1.9,4.4h-3.9L379.6,579.5z M378.7,577.3l-4.7,10.7h1.9l1.1-2.4h5.3l1.1,2.4h1.9l-4.7-10.7
			H378.7z M406.1,577.3v5.9c0,1-0.2,1.8-0.7,2.3c-0.5,0.6-1.2,0.9-2,0.9c-0.8,0-1.5-0.3-2-0.9c-0.5-0.6-0.7-1.3-0.7-2.3v-5.9h-1.8v6
			c0,1.5,0.4,2.7,1.3,3.5c0.8,0.8,1.9,1.2,3.2,1.2c1.3,0,2.4-0.4,3.3-1.2c0.8-0.8,1.3-2,1.3-3.5v-6H406.1z M425.1,578.9h1.8
			c2.8,0,4.2,1.2,4.2,3.7c0,1.2-0.3,2.1-1,2.7c-0.7,0.6-1.7,0.9-3,0.9h-2V578.9z M423.3,577.3v10.7h3.5c2.1,0,3.6-0.5,4.6-1.4
			c1-1,1.5-2.3,1.5-3.9c0-1.7-0.5-3-1.5-3.9c-1-0.9-2.5-1.4-4.4-1.4H423.3z M449.5,578.9h2.3c1,0,1.6,0.1,2,0.4
			c0.4,0.3,0.6,0.7,0.6,1.4c0,0.7-0.2,1.2-0.5,1.5c-0.4,0.3-1.1,0.5-2.1,0.5h-2.2V578.9z M447.7,577.3v10.7h1.8v-3.6h2.4l2.6,3.6
			h2.3l-2.8-3.9c1.5-0.5,2.3-1.6,2.3-3.3c0-1.2-0.3-2.1-1.1-2.6c-0.7-0.5-1.9-0.8-3.5-0.8H447.7z M471.4,577.3v10.7h7.7v-1.7h-5.9
			v-2.9h5.1v-1.6h-5.1V579h5.7v-1.7H471.4z M500,577.3l-2.9,4.9l-2.9-4.9h-2l4,6.5v4.2h1.8v-4.2l4-6.5H500z M534.4,578.9h1.8
			c1,0,1.7,0.1,2.1,0.5c0.5,0.3,0.7,0.8,0.7,1.6c0,0.7-0.2,1.3-0.5,1.7c-0.4,0.4-1,0.6-2,0.6h-2.1V578.9z M532.6,577.3v10.7h1.8
			v-3.1h1.9c1.6,0,2.7-0.3,3.5-0.9c0.8-0.6,1.1-1.5,1.1-2.8c0-1.3-0.4-2.2-1.1-2.9c-0.7-0.6-1.9-0.9-3.5-0.9H532.6z M588.9,577.3v8
			l-6.2-8h-1.8v10.7h1.8v-7.8l6,7.8h2v-10.7H588.9z M557.8,585.3c-0.7-0.8-1.1-1.7-1.1-2.7s0.4-2,1.1-2.7c0.7-0.8,1.6-1.1,2.7-1.1
			c1.1,0,2,0.4,2.7,1.1c0.7,0.8,1.1,1.7,1.1,2.7s-0.4,2-1.1,2.7c-0.7,0.8-1.6,1.1-2.7,1.1C559.4,586.4,558.5,586,557.8,585.3
			 M556.5,578.6c-1.1,1.1-1.6,2.4-1.6,3.9c0,1.6,0.5,2.9,1.6,3.9c1.1,1.1,2.4,1.6,4,1.6c1.6,0,2.9-0.5,4-1.6
			c1.1-1.1,1.6-2.4,1.6-3.9c0-1.6-0.5-2.9-1.6-3.9c-1.1-1.1-2.4-1.6-4-1.6C558.9,577,557.5,577.5,556.5,578.6 M606.8,577.8
			c-0.7,0.5-1.1,1.3-1.1,2.3c0,1,0.3,1.7,0.9,2.2c0.3,0.3,0.7,0.5,1.1,0.6c0.4,0.2,1,0.3,1.8,0.5c0.8,0.2,1.3,0.4,1.7,0.6
			c0.3,0.2,0.5,0.5,0.5,1c0,0.4-0.2,0.7-0.5,1c-0.3,0.3-0.8,0.4-1.4,0.4c-1.2,0-2.3-0.5-3.4-1.4l-1.1,1.4c1.3,1.2,2.8,1.7,4.4,1.7
			c1.1,0,2.1-0.3,2.8-0.9c0.7-0.6,1.1-1.3,1.1-2.3c0-0.9-0.3-1.6-0.8-2.1c-0.6-0.5-1.4-0.8-2.5-1.1c-1.1-0.3-1.8-0.5-2.1-0.7
			c-0.3-0.2-0.5-0.6-0.5-1c0-0.4,0.2-0.8,0.5-1c0.3-0.2,0.8-0.3,1.3-0.3c0.5,0,1.1,0.1,1.6,0.3c0.5,0.2,1,0.4,1.3,0.7l1-1.4
			c-0.5-0.4-1.1-0.7-1.7-0.9c-0.7-0.2-1.3-0.3-2-0.3C608.4,577,607.5,577.3,606.8,577.8" />
		</defs>
		<use xlink:href="#SVGID_21_" style="overflow:visible;" />
		<clipPath id="SVGID_2_">
			<use xlink:href="#SVGID_21_" style="overflow:visible;" />
		</clipPath>
		<rect x="374" y="577" style="clip-path:url(#SVGID_2_);" width="239.5" height="11" />
	</g>
	<g>
		<defs>
			<path id="SVGID_23_" d="M401.5,455.6c-1,1.5-3.6,4.8-7.8,9.8c-3.6,4.2-6.1,6.9-7.4,8l0.4,2.4c3.3-3.5,6-6.5,8.1-9
			c2.3-2.9,4.1-5.1,5.3-6.7c-0.3,1.6-0.4,5.1-0.4,10.8v6.6c-0.3,2.2-1.1,3.5-2.4,3.7c-1.4,0.2-2.7-0.5-4-2.1c-1-1.2-1.6-2.5-1.9-3.9
			c-0.2-1-0.6-1.2-1.3-0.8c-0.4,0.2-0.5,0.8-0.3,1.6c1.8,5.7,4.5,8.5,8.1,8.5c0.6,0,1.2-0.1,1.8-0.3c2.1-0.7,3.1-2.9,3.1-6.4
			c0-1.2-0.1-2.6-0.4-4.1c-0.4-2.5-0.7-4.7-0.7-6.6c0-3.2,0.7-5.9,2-8.1c1.3-1.7,2.1-2.8,2.5-3.3c0.5-0.9,0.4-1.6-0.3-2
			c-0.4-0.2-0.8-0.2-1.2-0.2C403.5,453.4,402.5,454.1,401.5,455.6 M329.5,443.7c-2.4,2.3-4.9,4.4-7.5,6.2c-2.1,1.5-3.1,2.3-3.3,2.5
			c-0.2,0.5,0,0.7,0.7,0.7c1.8,0,5.1-2.5,10.2-7.7c1.3,4.7,2.3,7.1,3.2,7.3c1.1,0.2,1.6-0.2,1.6-1.3c0-0.3-0.4-1.2-1.2-2.8
			c-0.8-1.6-1.3-3.3-1.4-5.1c-0.1-0.2-0.3-0.3-0.8-0.3C330.5,443.3,330,443.4,329.5,443.7 M310.8,476.1c0-2.9,1-6,3-9.2
			c-0.1,5.7,1.7,9.3,5.3,10.7c1,0.4,1.9,0.6,2.9,0.7c-2.3,2.1-4.6,3.1-6.8,3.1C312.3,481.5,310.8,479.7,310.8,476.1 M355,464.5
			c2.8-3.5,4.9-5.2,6.3-5.2c0.5,0,0.8,0.3,0.8,0.9c0,1.6-1.5,3.5-4.5,5.7c-1.3,1-2.9,1.7-4.9,2.4C353.2,466.8,354,465.6,355,464.5
			 M319.9,475.7c-3.1-1.4-4.5-5.2-4-11.5c3.3-4,6.3-6,9.2-6c0.6,0,1.2,0.1,1.8,0.3c1.6,0.6,2.5,2.2,2.5,4.9c0,3.3-1.2,6.8-3.6,10.5
			c-0.6,0.9-1.2,1.7-1.7,2.5c-0.2,0-0.5,0-0.7,0C322.2,476.5,321.1,476.2,319.9,475.7 M355.8,432.4c-1.2,1.7-5.8,9.4-13.8,23.2
			l-6,0.3c-0.6,0-0.8,0.2-0.8,0.8c0.1,0.7,0.4,1.1,0.8,1.2h4.9c-2.9,5-5.1,8.7-6.4,11.1l0,0c-1.4,1.7-2.7,3-4,3.9
			c-2.1,1.6-3.3,2.4-3.6,2.6c2.9-3.9,4.3-8,4.3-12c0-3.3-1-5.5-3.1-6.6c-1-0.5-2.1-0.8-3.4-0.8c-5.1,0-9.5,3.1-13.3,9.4
			c-2.1,3.4-3.1,6.6-3.1,9.7c0,2.3,0.6,4.1,1.8,5.6c1.2,1.6,2.9,2.3,5.2,2.3c3.3,0,6.5-1.6,9.6-4.9c2.3-0.5,4.7-1.9,7.1-3.9
			c-0.8,2-1.2,3.5-1.2,4.5c0,2.2,1.1,3.3,3.2,3.3c2.5,0,5.8-1.7,10-5.3c1.5-1.6,2.9-3,4-4.2c-0.2,1-0.4,2.1-0.4,3.1
			c0,4.1,1.6,6.2,4.9,6.5c4,0.3,8.2-1.6,12.7-5.7c0.4-0.3,0.7-0.6,1-0.9v0c0.2-0.1,0.2-0.2,0.4-0.3c2.4-2.3,4.5-4.5,6-6.6
			c0.1-0.2,0.2-0.3,0.3-0.4c0.5-0.6,0.9-1.1,1.3-1.6c2.4-2.9,4.1-5.1,5.4-6.7c-0.3,1.6-0.4,5.1-0.4,10.8v6.6
			c-0.3,2.2-1.1,3.5-2.4,3.7c-1.4,0.2-2.7-0.5-4-2.1c-1-1.2-1.6-2.5-1.9-3.9c-0.2-1-0.7-1.2-1.3-0.8c-0.4,0.2-0.5,0.8-0.2,1.6
			c1.8,5.7,4.5,8.5,8.1,8.5c0.6,0,1.2-0.1,1.7-0.3c2.1-0.7,3.1-2.9,3.1-6.4c0-1.2-0.2-2.6-0.4-4.1c-0.5-2.5-0.7-4.7-0.7-6.6
			c0-3.2,0.7-5.9,2-8.1c1.3-1.7,2.1-2.8,2.5-3.3c0.5-0.9,0.4-1.6-0.4-2c-0.4-0.2-0.7-0.2-1.1-0.2c-1.2,0-2.3,0.8-3.2,2.2
			c-1,1.5-3.6,4.8-7.8,9.8c0,0,0,0-0.1,0.1l0-0.2c-0.8,1-1.6,2-2.4,2.9c-0.4,0.5-0.9,1-1.3,1.5c-0.5,0.6-1.1,1.2-1.6,1.7
			c-0.2,0.2-0.5,0.5-0.7,0.7c-0.5,0.5-0.9,0.9-1.3,1.2l0,0.1c-0.7,0.6-1.4,1.3-2,1.8c-3.9,3.3-7.2,4.9-9.9,4.9
			c-2.2,0-3.3-1.4-3.3-4.1c0-1.7,0.4-3.7,1.2-5.7c2.2-0.6,4.4-1.5,6.4-2.8c1.6-1,3.1-2.4,4.5-4.3c1.4-1.8,2.1-3.4,2.1-4.6
			c0-1.2-0.7-1.8-2.2-1.8c-1.9,0-4.1,1-6.6,3.1c-2.6,2.1-4.6,4.6-6,7.4c-0.2,0.5-0.5,1-0.6,1.4c-0.1,0.2-0.3,0.3-0.4,0.5
			c-1.8,1.9-3.1,3.4-4.2,4.3c-4.1,3.6-7.1,5.4-9,5.4c-1.1,0-1.7-0.6-1.7-1.7c0-1.6,1-4,2.9-7.4c1.2-2.2,3.5-6.2,6.9-12l5,0.2
			c0.4,0,0.9-0.4,1.3-1.2c0.2-0.5,0.4-0.8,0.4-1.1c-0.1-0.2-0.2-0.4-0.4-0.6l-4.9,0.4c7.6-12.7,12-20,13.2-21.9
			c0.6-1,0.6-1.7-0.3-2.1c-0.2-0.1-0.5-0.2-0.7-0.2C356.7,431.4,356.2,431.8,355.8,432.4 M328.7,413.4c-10,10.3-18.5,20.7-25.4,31.1
			c-5.2,7.8-10.5,17-15.9,27.5c-0.2-0.9-0.4-1.9-0.9-2.8c-1-2.6-3.5-4.6-7.6-6c-4.1-1.4-9-2.2-14.6-2.2c-1.6-0.1-3.3,0-5,0.1
			c2.5-3.6,5-7.2,7.5-10.6c3.8-5.1,9.1-11.7,16-19.5c6.2-7.1,9.8-11.3,10.6-12.7c0.7-1,0.7-1.8-0.1-2.2c-0.5-0.3-1.1,0.1-1.7,1.2
			c-1,1.9-4.5,5.9-10.4,12.2c-7,7.4-12.6,14-16.8,19.6c-3.7,4.8-6.7,9-9.3,12.5c-8,1.1-15.4,2.8-22.4,5.4c-1,0.3-1.4,0.9-1.2,1.6
			c0.2,0.8,0.7,1,1.5,0.7c5.5-2,12.1-3.6,20.1-4.9c-6.9,9.7-11.7,17.7-14.4,24c-0.1,0.2-0.2,0.5-0.2,0.7c0,0.8,0.6,1.3,1.8,1.4
			c1.6,0.1,2.5-0.2,2.9-1c2.3-6.1,7-14.6,14.2-25.5c2.6-0.3,5-0.5,7.1-0.5c5.9,0,10.5,0.6,14,2.1c2.8,1.2,4.6,2.8,5.2,4.8
			c0.3,1.1,0.5,2.7,0.5,4.8c-0.1,2.3-0.3,3.9-0.8,4.9c-0.5,1-0.1,1.8,1.2,2.2c1.4,0.5,2.4,0.2,2.9-0.9c4.4-9.8,6.6-14.7,6.6-14.8
			c3.3-7,6.8-13.4,10.6-19.5c4-6.5,9-13.3,14.8-20.5c4.5-5.5,8.1-9.6,10.8-12.2c0.4-0.4,0.6-0.8,0.7-1.2c0-0.4-0.2-0.7-0.4-0.8
			c-0.1,0-0.1,0-0.2,0C329.9,412.3,329.3,412.7,328.7,413.4 M414.5,464.5c2.8-3.5,4.9-5.2,6.3-5.2c0.6,0,0.8,0.3,0.8,0.9
			c0,1.6-1.5,3.5-4.6,5.7c-1.3,1-2.9,1.7-4.9,2.4C412.7,466.8,413.5,465.6,414.5,464.5 M488.1,416.4c-2.9,2.9-5.3,6.9-6.9,12
			c-1.3,4.3-2,8.7-2,13.3c0,5.2,0.6,9.3,1.8,12.3c0.2,0.7,0.5,1.1,0.8,1.1c0.2,0,0.3-0.1,0.4-0.4c0-0.3,0-0.7-0.1-1.2
			c-0.8-3.3-1.1-6.6-1.1-10.2c0-4.7,0.7-9.5,2.1-14.2c1.4-4.8,3.5-8.6,6.4-11.5c2.7-2.5,5.3-3.7,7.8-3.5c4.1,0.4,6.2,3.4,6.2,9
			c0,8.8-3.3,18.7-10,29.7c-5.9,9.8-12.7,17.8-20.4,24.2c-4.5,3.7-9.6,6.6-15.6,8.7c-5.6,2-10.9,3-15.9,3c-6,0-10.2-1.4-12.7-4.1
			c-1.7-1.9-2.5-4.3-2.5-7.4c0-0.8,0-1.6,0.2-2.4c0.2-1.2,0.4-2.3,0.8-3.5c0.4-1.3,1-2.6,1.6-4c1.6-3.3,3.7-6.2,6.2-8.6
			c3.1-2.9,6.9-5.7,11.4-8.1c3.4-1.9,6-3,7.7-3.4c0.8-0.2,1.1-0.5,1-0.9c-0.2-0.6-0.6-0.8-1.4-0.5c-8.4,2.7-15,6.6-20,11.8
			c-5.4,5.7-8.5,11.2-9.3,16.6c-0.5,0.5-0.9,0.9-1.4,1.3c-3.9,3.3-7.2,4.9-9.9,4.9c-2.2,0-3.3-1.4-3.3-4.1c0-1.7,0.4-3.7,1.2-5.7
			c2.2-0.6,4.4-1.5,6.4-2.8c1.6-1,3.1-2.4,4.5-4.3c1.4-1.8,2.1-3.4,2.1-4.6c0-1.2-0.7-1.8-2.2-1.8c-1.9,0-4.1,1-6.7,3.1
			c-2.5,2.1-4.6,4.6-6,7.4c-1.4,2.9-2.2,5.7-2.2,8.4c0,4.1,1.6,6.2,4.8,6.5c3.9,0.3,8.1-1.5,12.5-5.4c0,3.6,1.1,6.7,3.3,9.2
			c2.8,3.2,8.1,4.9,15.8,4.9c11.6,0,22.3-4,32-11.9c8.5-6.9,15.6-15.8,21.3-26.9c4.9-9.3,7.7-17.7,8.5-25.3c0.1-1,0.2-1.9,0.2-2.9
			c0-3.4-0.7-6.2-2-8.4c-1.5-2.4-3.5-3.6-6-3.7C494.2,411.9,491.1,413.4,488.1,416.4" />
		</defs>
		<use xlink:href="#SVGID_23_" style="overflow:visible;" />
		<clipPath id="SVGID_4_">
			<use xlink:href="#SVGID_23_" style="overflow:visible;" />
		</clipPath>
		<rect x="231.3" y="411.9" style="clip-path:url(#SVGID_4_);" width="274.1" height="79" />
	</g>
	<g>
		<defs>
			<path id="SVGID_25_" d="M573.1,446.3c-1.4,1.5-2.7,2.7-3.9,3.5c-0.8,0.5-1.9,1.1-3.3,1.8c-1,0.4-1.4,0.8-1.4,1.2
			c0,0.4,0.3,0.6,1,0.6c2.4,0,5.4-1.5,9-4.6c1.2-1,1.8-1.9,1.8-2.4c0-1.1-0.4-1.6-1.4-1.6C574.7,444.8,574.1,445.3,573.1,446.3
			 M559,464.5c2.8-3.5,4.9-5.2,6.3-5.2c0.5,0,0.8,0.3,0.8,0.9c0,1.6-1.5,3.5-4.5,5.7c-1.3,1-2.9,1.7-4.9,2.4
			C557.3,466.8,558.1,465.6,559,464.5 M603.5,464.5c2.8-3.5,4.9-5.2,6.3-5.2c0.6,0,0.8,0.3,0.8,0.9c0,1.6-1.5,3.5-4.5,5.7
			c-1.3,1-2.9,1.7-4.9,2.4C601.8,466.8,602.6,465.6,603.5,464.5 M750,464.5c2.8-3.5,4.9-5.2,6.3-5.2c0.5,0,0.8,0.3,0.8,0.9
			c0,1.6-1.5,3.5-4.6,5.7c-1.3,1-2.9,1.7-4.9,2.4C748.3,466.8,749.1,465.6,750,464.5 M577.2,479.5c-1.3-0.5-2.2-1.4-2.9-2.5
			c-0.3-0.6-0.6-1.4-0.8-2.3c2.2-3.5,4.6-7.1,7.1-10.6c4-3.9,7.1-5.8,9.5-5.8c1.6,0,2.4,1,2.4,2.8c0,2.6-1.4,6.1-4.2,10.5
			c-3.5,5.5-6.7,8.2-9.7,8.2C578.1,479.7,577.7,479.7,577.2,479.5 M552.2,446c2-3.8,4-6.7,5.8-8.8c1.6-1.9,2.7-2.6,3.2-2.3
			c0.2,0.1,0.2,0.3,0.2,0.6c0,1.7-2.1,6.2-6.4,13.4c-1.9,3.2-4,6.4-6.3,9.5c-1.8,2.3-3.7,4.7-5.5,7.1
			C545.2,459.8,548.2,453.3,552.2,446 M673,446c2-3.8,4-6.7,5.8-8.8c1.6-1.9,2.6-2.6,3.2-2.3c0.2,0.1,0.2,0.3,0.2,0.6
			c0,1.7-2.1,6.2-6.4,13.4c-1.9,3.2-4,6.4-6.3,9.5c-1.8,2.3-3.6,4.7-5.5,7.1C666,459.8,669,453.3,673,446 M671.3,444.6
			c-1.9,3.2-4.1,7.5-6.6,12.8c-2,4.3-3.9,8.7-5.8,13c-1.9,2.4-3.9,4.6-6.2,6.4c-2.5,2.1-4.7,3.1-6.2,3.1c-2,0-2.9-1.2-2.9-3.4
			c0-1.6,0.6-3.5,1.7-5.6c0.2-0.3,0.3-0.5,0.5-0.8c0.9-1,1.8-2.1,2.6-3.3l-0.1-0.2c0.4-0.4,0.8-0.8,1.2-1.2
			c4.5-4.3,8.2-6.5,10.9-6.5h1.5c0.4,0.1,0.7,0.1,0.8-0.1c0.1-0.2,0.2-0.4,0.1-0.6c-0.2-0.7-0.8-1.1-1.6-1.1
			c-4.1-0.2-8.6,2-13.3,6.7c-2.3,2.3-4.1,4.7-5.3,7v0c-1.1,1.2-2.2,2.3-3.4,3.4c-3.5,3.3-6,4.9-7.4,4.9c-0.8,0-1.2-0.4-1.2-1.3
			c0-1.4,2.6-5.9,7.7-13.3c1.7-2.4,2.5-4.3,2.5-5.7c0-1.4-0.9-2-2.8-2c-2.3,0-5.5,2.1-9.7,6.2c-3,3-5.5,5.6-7.6,7.9
			c3.3-4.9,5.7-9,7.2-12.5c0.4-0.8,0.1-1.4-0.8-1.6c-0.9-0.2-1.5,0-1.8,0.7c-0.4,1-2.2,4.1-5.4,9.3c0,0.1,0,0.1-0.1,0.2
			c-2.9,3.5-5.5,6.2-7.9,8.3c-3.9,3.3-7.2,4.9-9.9,4.9c-2.2,0-3.3-1.4-3.3-4.1c0-1.7,0.4-3.7,1.2-5.7c2.2-0.6,4.4-1.5,6.4-2.8
			c1.6-1,3.1-2.4,4.5-4.3c1.4-1.8,2.1-3.4,2.1-4.6c0-1.2-0.7-1.8-2.2-1.8c-1.9,0-4.1,1-6.7,3.1c-2.5,2.1-4.6,4.6-6,7.4
			c-0.3,0.6-0.6,1.3-0.9,1.9c-1.4,1.6-2.9,3.1-4.7,4.8c-3.7,3.5-6.4,5.2-8.2,4.9c2-1.7,3.9-3.9,5.6-6.7c2.7-4.3,4.1-8.2,4.1-11.5
			c0-1.8-0.5-2.9-1.6-3.6c-0.6-0.4-1.2-0.5-2-0.5c-1.8,0-4.1,0.9-6.7,2.6l0.4-0.4c0.6-1,0.6-1.7,0-2.2c-0.6-0.5-1.4-0.2-2.3,0.9
			c-2.7,3.1-5.8,7.2-9.1,12.5c-1.8,2-3.5,3.8-5.2,5.2c-3.9,3.3-7.2,4.9-9.9,4.9c-2.2,0-3.3-1.4-3.3-4.1c0-1.7,0.4-3.7,1.2-5.7
			c2.2-0.6,4.4-1.5,6.4-2.8c1.6-1,3.1-2.4,4.5-4.3c1.4-1.8,2.1-3.4,2.1-4.6c0-1.2-0.7-1.8-2.2-1.8c-1.9,0-4.1,1-6.6,3.1
			c-2.6,2.1-4.6,4.6-6.1,7.4c-0.2,0.3-0.3,0.6-0.4,1c-1.6,1.9-3,3.4-4.2,4.5c-4.5,4.2-7.4,6.3-8.9,6.3c-0.8,0-1.1-0.5-1.1-1.4
			c0-1.3,0.9-3.9,2.6-7.7c6.3-7.3,11.5-14.1,15.4-20.5c4.7-7.6,7-13.1,7-16.3c0-1.5-0.6-2.2-1.7-2.2c-2.7,0-6.7,4.5-12.1,13.5
			c-2,3.2-4.1,7.5-6.6,12.8c-2,4.3-4,8.7-5.9,13c-1.9,2.4-3.9,4.6-6.1,6.4c-2.6,2.1-4.7,3.1-6.2,3.1c-1.9,0-2.9-1.2-2.9-3.4
			c0-1.6,0.6-3.5,1.7-5.6c0.1-0.2,0.2-0.4,0.4-0.6c0.9-1.1,1.8-2.2,2.7-3.4l-0.1-0.2c0.4-0.4,0.8-0.8,1.2-1.2
			c4.5-4.3,8.2-6.5,11-6.5h1.5c0.4,0.1,0.7,0.1,0.8-0.1c0.2-0.2,0.2-0.4,0.1-0.6c-0.2-0.7-0.8-1.1-1.6-1.1c-4.2-0.2-8.6,2-13.3,6.7
			c-2.3,2.3-4.1,4.7-5.3,7v0c-1.1,1.2-2.2,2.3-3.4,3.4c-3.5,3.3-6,4.9-7.4,4.9c-0.8,0-1.2-0.4-1.2-1.3c0-1.4,2.6-5.9,7.7-13.3
			c1.7-2.4,2.5-4.3,2.5-5.7c0-1.4-0.9-2-2.8-2c-2.3,0-5.5,2.1-9.8,6.2c-3,3-5.5,5.6-7.6,7.9c3.3-4.9,5.7-9,7.2-12.5
			c0.4-0.8,0.1-1.4-0.8-1.6c-0.9-0.2-1.5,0-1.7,0.7c-0.5,1.1-2.7,5-6.8,11.7c-4.1,6.7-6.5,10.4-7.2,11.1c-0.2,0.2-0.2,0.5-0.1,0.8
			c0.2,0.4,0.4,0.6,0.8,0.8c0.8,0.3,1.4,0.1,2-0.6c5.3-6.3,9.8-11.5,13.8-15.5c4.4-4.6,7.5-6.8,9.1-6.8c0.2,0,0.3,0,0.4,0.1
			c0.4,0.3-1.9,4.1-6.7,11.5c-2.2,3.5-3.3,6.1-3.3,7.9c0,0.9,0.3,1.7,0.8,2.4c0.6,0.7,1.3,1,2.1,1c2,0,4.7-1.6,8.3-4.6
			c0.9-0.8,1.7-1.5,2.5-2.3c-0.2,0.8-0.3,1.7-0.3,2.5c0,3.2,1.4,4.9,4.2,4.9c3.6,0,7.9-2.5,12.7-7.6l-0.2,0.4c-0.6,1.3-1,2.5-1,3.6
			c0,2.2,0.9,3.3,2.6,3.3c2.7,0,6-2.1,10.1-6.2c1.2-1.2,2.2-2.3,3.1-3.2c-0.2,1.1-0.4,2.1-0.4,3.2c0,4.1,1.6,6.2,4.9,6.5
			c3.9,0.3,8-1.5,12.4-5.4c-0.7,1.2-1.5,2.5-2.2,3.9c-5.2,9.4-9.2,17.1-12,23.3c-0.4,1-0.1,1.6,0.8,1.8c0.8,0.2,1.4-0.1,1.8-1
			c4.1-8.6,7.8-16,11.3-22.2c1.3-2.1,2.7-4.4,4.1-6.7c0.4,2.9,1.7,4.8,3.7,5.6c1.5,0.6,3.1,0.4,5-0.5c0.6,0.6,1.3,0.9,2.1,0.9
			c2.1,0,5.7-2.2,10.4-6.5c0.9-1,1.7-1.8,2.5-2.6c-0.2,1-0.3,2-0.3,3c0,4.1,1.6,6.2,4.8,6.5c4,0.3,8.2-1.6,12.7-5.7
			c0.4-0.4,0.9-0.8,1.3-1.2c-1.8,2.8-2.9,4.4-3.4,4.9c-0.2,0.2-0.2,0.5-0.1,0.8c0.2,0.4,0.4,0.6,0.8,0.8c0.8,0.3,1.4,0.1,1.9-0.6
			c5.3-6.3,9.9-11.5,13.8-15.5c4.4-4.6,7.5-6.8,9.1-6.8c0.2,0,0.3,0,0.4,0.1c0.4,0.3-1.9,4.1-6.7,11.5c-2.2,3.5-3.3,6.1-3.3,7.9
			c0,0.9,0.3,1.7,0.8,2.4c0.6,0.7,1.3,1,2.1,1c2,0,4.8-1.6,8.4-4.6c0.9-0.8,1.7-1.5,2.5-2.3c-0.2,0.8-0.3,1.7-0.3,2.5
			c0,3.2,1.4,4.9,4.2,4.9c3.6,0,7.9-2.5,12.7-7.6l-0.2,0.4c-0.6,1.3-1,2.5-1,3.6c0,2.2,0.9,3.3,2.6,3.3c2.6,0,6-2.1,10.1-6.2
			c0.6-0.6,1.2-1.2,1.7-1.7c-0.4,1.3-0.6,2.5-0.6,3.8c0,3,1.3,4.5,3.9,4.5c3.7,0,8-2.5,12.9-7.6l-0.2,0.4c-0.6,1.3-1,2.5-1,3.6
			c0,2.2,0.9,3.3,2.6,3.3c2.6,0,6-2.1,10.2-6.2c0.2-0.2,0.5-0.5,0.7-0.7c-1.9,3-3.1,4.8-3.6,5.3c-0.2,0.2-0.3,0.5-0.1,0.8
			c0.2,0.4,0.4,0.6,0.8,0.8c0.8,0.3,1.4,0.1,2-0.6c5.3-6.3,9.9-11.5,13.8-15.5c4.5-4.6,7.5-6.8,9.1-6.8c0.2,0,0.3,0,0.4,0.1
			c0.4,0.3-1.9,4.1-6.6,11.5c-2.2,3.5-3.3,6.1-3.3,7.9c0,0.9,0.3,1.7,0.8,2.4c0.6,0.7,1.3,1,2.1,1c2,0,4.8-1.6,8.4-4.6
			c1.2-1,2.3-2.1,3.4-3.2c-0.9,2.1-1.3,3.6-1.3,4.6c0,2.2,1.1,3.3,3.3,3.3c2.5,0,5.8-1.7,10-5.3c1.6-1.6,2.9-3,4.1-4.3
			c-0.2,1.1-0.4,2.1-0.4,3.2c0,4.1,1.6,6.2,4.8,6.5c4,0.3,8.2-1.6,12.7-5.7c3.7-3.3,6.5-6.4,8.4-9.4l-0.6-1.9
			c-3.3,4.3-6.4,7.6-9.2,10c-3.9,3.3-7.2,4.9-9.9,4.9c-2.2,0-3.3-1.4-3.3-4.1c0-1.7,0.4-3.7,1.2-5.7c2.2-0.6,4.4-1.5,6.4-2.8
			c1.6-1,3.1-2.4,4.5-4.3c1.4-1.8,2.1-3.4,2.1-4.6c0-1.2-0.7-1.8-2.2-1.8c-1.9,0-4.1,1-6.7,3.1c-2.5,2.1-4.6,4.6-6,7.4
			c-0.3,0.5-0.5,1-0.7,1.6c-0.1,0.1-0.2,0.3-0.4,0.4c-1.8,1.9-3.2,3.4-4.2,4.3c-4.1,3.6-7.1,5.4-9,5.4c-1.1,0-1.7-0.6-1.7-1.7
			c0-1.6,1-4,2.9-7.4c1.2-2.2,3.5-6.2,6.9-12l5,0.2c0.5,0,0.9-0.4,1.3-1.2c0.2-0.5,0.4-0.8,0.4-1.1c-0.1-0.2-0.2-0.4-0.4-0.6
			l-4.9,0.4c7.6-12.7,12-20,13.3-21.9c0.6-1,0.6-1.7-0.3-2.1c-0.9-0.4-1.6-0.1-2.3,0.8c-1.2,1.7-5.8,9.4-13.8,23.2l-6,0.3
			c-0.6,0-0.8,0.2-0.8,0.8c0.1,0.7,0.4,1.1,0.8,1.2h4.8c-2.7,4.5-4.6,8-5.9,10.3c-1.7,2.1-3.7,4.1-5.7,6c-3.5,3.3-6,4.9-7.4,4.9
			c-0.8,0-1.2-0.4-1.2-1.3c0-1.4,2.5-5.9,7.7-13.3c1.7-2.4,2.5-4.3,2.5-5.7c0-1.4-1-2-2.8-2c-2.3,0-5.5,2.1-9.7,6.2
			c-3,3-5.5,5.6-7.5,7.9c3.3-4.9,5.7-9,7.2-12.5c0.3-0.8,0.1-1.4-0.8-1.6c-1-0.2-1.5,0-1.8,0.7c-0.4,1-2.2,4.1-5.3,9.2
			c0,0,0,0.1,0,0.1c-2.1,2.7-3.9,4.7-5.4,6c-4.5,4.2-7.4,6.3-8.9,6.3c-0.7,0-1.1-0.4-1.1-1.2c0-1.8,1.7-5.2,5-10.3
			c0.8-1.2,0.7-1.8-0.2-1.9c-1-0.1-1.7,0.2-2.3,1c-0.8,1.1-1.3,2-1.7,2.6c-1.8,2.4-4.1,4.7-7,6.9c-3.1,2.4-5.7,3.6-7.6,3.6
			c-1.8,0-2.7-1-2.7-3.1c0-1.6,0.7-3.5,2-5.8c1.2-2.1,2.7-4,4.3-5.6c4.8-4.6,8.8-6.9,12-6.9c2.1,0,3.1,0.9,3.1,2.7
			c0,0.5-0.1,0.9-0.2,1.4c-0.2,0.6,0,1,0.7,1c1,0,1.5-1,1.5-3c0-2.9-1.4-4.4-4.2-4.4c-2,0-4.2,0.7-6.8,2c-2.7,1.4-5.2,3.2-7.4,5.5
			c-0.7,0.8-1.4,1.5-2,2.2l0-0.1c-2.5,3.1-4.6,5.5-6.2,7c-4.5,4.2-7.5,6.3-8.9,6.3c-0.8,0-1.2-0.5-1.2-1.4c0-1.3,0.9-3.9,2.6-7.7
			c6.3-7.3,11.5-14.1,15.5-20.5c4.7-7.6,7-13.1,7-16.3c0-1.5-0.6-2.2-1.7-2.2C680.7,431.1,676.7,435.6,671.3,444.6" />
		</defs>
		<use xlink:href="#SVGID_25_" style="overflow:visible;" />
		<clipPath id="SVGID_6_">
			<use xlink:href="#SVGID_25_" style="overflow:visible;" />
		</clipPath>
		<rect x="490.4" y="431.1" style="clip-path:url(#SVGID_6_);" width="278.1" height="75" />
	</g>
	<g>
		<defs>
			<path id="SVGID_27_" d="M431.9,529.9c-3.7,1.3-7.3,4.1-11,8.4c-2.8,3.3-5.3,6.9-7.4,10.8c0.3-2.5,0.4-4.7,0.5-6.5
			c0.3-4.5,0.3-7.6,0-9.3c-0.1-0.5-0.5-0.7-1.3-0.7c-0.9,0-1.2,0.2-1.2,0.6c0.1,2.4-0.7,4.9-2.5,7.5c-1.9,2.4-3.4,4.1-4.4,5.2
			l0.7,1.6c3.2-3.3,5.3-6,6.4-8.1c0,2.1-0.3,4.7-0.8,7.7c-0.4,2.5-0.8,5.1-1.3,7.6c0,0.3,0.1,0.5,0.3,0.6c0.2,0.1,0.5,0.2,0.8,0.2
			c0.7,0,1.2-0.3,1.5-0.8c0.7-1.3,2-3.6,3.9-6.6c2.4-3.9,4.4-6.6,5.8-8.3c4.5-5.2,8-8.3,10.3-9.2c0.5-0.2,0.7-0.4,0.5-0.7
			c0,0,0,0-0.1,0C432.4,529.7,432.2,529.8,431.9,529.9 M434.2,524.7c0,1,0.9,2.3,2.7,3.9c1.8,1.6,3.2,2.5,4.1,2.5
			c0.5,0,0.7-0.2,0.7-0.5c0-0.4-0.3-0.7-0.9-1.2c-0.9-0.7-1.5-1.2-1.9-1.6c-0.6-0.7-1.3-1.8-2.1-3.1c-0.5-0.8-0.9-1.2-1.3-1.2
			C434.6,523.4,434.2,523.8,434.2,524.7 M585.7,524.4c-0.5,0.7-0.8,1.5-0.8,2.2c0,1,0.5,1.5,1.4,1.5c0.9,0,1.8-0.5,2.5-1.6
			c0.5-0.8,0.7-1.5,0.7-2.2c0-1.1-0.4-1.6-1.3-1.6C587.3,522.7,586.5,523.3,585.7,524.4 M433.2,539.7c2.5-3.1,4.3-4.6,5.6-4.6
			c0.5,0,0.7,0.3,0.7,0.8c0,1.5-1.3,3.1-4,5c-1.1,0.8-2.6,1.5-4.3,2.1C431.7,541.8,432.4,540.7,433.2,539.7 M474.6,539.7
			c2.5-3.1,4.3-4.6,5.6-4.6c0.5,0,0.7,0.3,0.7,0.8c0,1.5-1.3,3.1-4,5c-1.1,0.8-2.6,1.5-4.3,2.1C473.1,541.8,473.8,540.7,474.6,539.7
			 M525.8,539.7c2.5-3.1,4.3-4.6,5.6-4.6c0.5,0,0.7,0.3,0.7,0.8c0,1.5-1.3,3.1-4,5c-1.1,0.8-2.6,1.5-4.3,2.1
			C524.3,541.8,525,540.7,525.8,539.7 M593.3,539.7c2.5-3.1,4.3-4.6,5.6-4.6c0.5,0,0.7,0.3,0.7,0.8c0,1.5-1.3,3.1-4,5
			c-1.1,0.8-2.6,1.5-4.3,2.1C591.8,541.8,592.4,540.7,593.3,539.7 M620.3,516.4c-3.4,4.3-6.5,9.4-9.4,15.4
			c-2.1,4.3-3.5,8.2-4.4,11.7c-2,2.3-3.8,4.2-5.6,5.7c-3.5,2.9-6.4,4.3-8.7,4.3c-2,0-2.9-1.2-2.9-3.6c0-1.6,0.3-3.2,1-5
			c2-0.5,3.9-1.3,5.7-2.5c1.4-0.9,2.7-2.1,4-3.8c1.2-1.6,1.9-3,1.9-4.1s-0.6-1.6-1.9-1.6c-1.6,0-3.6,0.9-5.9,2.8
			c-2.3,1.9-4.1,4.1-5.4,6.6c-0.2,0.4-0.4,0.9-0.6,1.3c-0.1,0.1-0.2,0.2-0.4,0.4c-1.5,1.7-2.8,3-3.7,3.8c-3.6,3.2-6.2,4.8-7.9,4.8
			c-0.9,0-1.4-0.4-1.4-1.1c0-0.9,1.1-3.2,3.2-7c3.2-5.3,5.1-8.6,5.9-9.6c0.3-0.6,0.1-0.9-0.4-1.2c-0.7-0.3-1.2-0.2-1.7,0.4
			c-1,1.1-2.7,3.7-5.1,7.8c-0.4,0.5-1,1.2-1.8,2.1c-1.6,1.7-2.8,3-3.7,3.8c-3.6,3.2-6.2,4.8-7.9,4.8c-1,0-1.5-0.5-1.5-1.4
			c0-1.4,0.9-3.6,2.6-6.6c1-1.9,3.1-5.5,6.1-10.6l4.4,0.2c0.4,0,0.8-0.4,1.1-1.1c0.2-0.4,0.3-0.7,0.3-1c-0.1-0.2-0.2-0.3-0.3-0.5
			l-4.3,0.3c6.7-11.2,10.6-17.6,11.7-19.3c0.6-0.9,0.5-1.5-0.2-1.9c-0.8-0.3-1.4-0.1-2,0.7c-1,1.5-5.1,8.3-12.1,20.5l-5.4,0.3
			c-0.5,0-0.7,0.2-0.7,0.7c0.1,0.6,0.3,1,0.7,1h4.3c-2.3,4-4,6.9-5.2,9c-1.6,1.9-3.3,3.7-5.1,5.4c-3.1,2.9-5.3,4.3-6.6,4.3
			c-0.7,0-1.1-0.4-1.1-1.2c0-1.2,2.3-5.2,6.8-11.7c1.5-2.1,2.3-3.8,2.3-5c0-1.2-0.8-1.8-2.5-1.8c-2,0-4.9,1.8-8.6,5.5
			c-2.6,2.6-4.8,4.9-6.6,6.9c2.9-4.2,5-7.9,6.3-11c0.3-0.7,0.1-1.2-0.7-1.4c-0.8-0.2-1.3,0-1.5,0.6c-0.3,0.9-1.9,3.6-4.7,8.2
			c-2.5,3.1-4.9,5.7-7.1,7.5c-3.5,2.9-6.4,4.3-8.7,4.3c-2,0-3-1.2-3-3.6c0-1.6,0.4-3.2,1-5c2-0.5,3.9-1.3,5.7-2.5
			c1.4-0.9,2.7-2.1,4-3.8c1.2-1.6,1.9-3,1.9-4.1s-0.7-1.6-1.9-1.6c-1.7,0-3.6,0.9-5.9,2.8c-2.3,1.9-4,4.1-5.3,6.6
			c-0.2,0.4-0.4,0.8-0.6,1.2c-1.4,1.7-3,3.3-4.6,4.8c-3.1,2.9-5.3,4.3-6.6,4.3c-0.7,0-1.1-0.4-1.1-1.2c0-1.2,2.3-5.2,6.8-11.7
			c1.5-2.1,2.2-3.8,2.2-5c0-1.2-0.8-1.8-2.5-1.8c-2.2,0-5,1.8-8.5,5.4c-2,2.1-3.4,3.7-4.2,5.1c1.8-4.1,2.7-6.8,2.7-8.2
			c0-1.5-0.8-2.2-2.3-2.2c-2,0-4.6,1.4-7.9,4.3c0.6-1.1,1.1-2.1,1.6-2.9c0.3-0.7,0.1-1.3-0.7-1.4c-0.8-0.2-1.3,0-1.5,0.7
			c-0.4,0.9-1.9,3.5-4.6,8c-2.6,3.2-5,5.8-7.2,7.7c-3.5,2.9-6.4,4.3-8.7,4.3c-2,0-3-1.2-3-3.6c0-1.6,0.4-3.2,1-5
			c1.9-0.5,3.9-1.3,5.7-2.5c1.4-0.9,2.7-2.1,4-3.8c1.3-1.6,1.9-3,1.9-4.1s-0.7-1.6-1.9-1.6c-1.7,0-3.6,0.9-5.9,2.8
			c-2.3,1.9-4,4.1-5.3,6.6c-0.2,0.4-0.4,0.8-0.5,1.2c-1.4,1.7-3,3.3-4.6,4.8c-3.1,2.9-5.3,4.3-6.6,4.3c-0.7,0-1.1-0.4-1.1-1.2
			c0-1.2,2.3-5.2,6.8-11.7c1.5-2.1,2.2-3.8,2.2-5c0-1.2-0.8-1.8-2.5-1.8c-2,0-4.9,1.8-8.6,5.5c-2.6,2.6-4.8,4.9-6.6,6.9
			c2.9-4.2,5-7.9,6.3-11c0.3-0.7,0.1-1.2-0.7-1.4c-0.8-0.2-1.3,0-1.5,0.6c-0.4,0.9-1.9,3.6-4.7,8.2c-2.5,3.1-4.9,5.7-7.1,7.5
			c-3.5,2.9-6.4,4.3-8.7,4.3c-1.9,0-2.9-1.2-2.9-3.6c0-1.6,0.3-3.2,1-5c2-0.5,3.9-1.3,5.7-2.5c1.4-0.9,2.7-2.1,4-3.8
			c1.3-1.6,1.9-3,1.9-4.1s-0.6-1.6-1.9-1.6c-1.6,0-3.6,0.9-5.9,2.8c-2.3,1.9-4,4.1-5.3,6.6c-1.3,2.5-1.9,5-1.9,7.4
			c0,3.6,1.4,5.5,4.2,5.7c3.5,0.3,7.3-1.4,11.2-5c0.4-0.4,0.8-0.7,1.2-1.1c-1.6,2.5-2.6,4-3,4.4c-0.2,0.2-0.2,0.4-0.1,0.7
			c0.2,0.3,0.4,0.6,0.7,0.7c0.7,0.3,1.2,0.1,1.7-0.5c4.7-5.6,8.7-10.2,12.1-13.7c3.9-4,6.6-6,8-6c0.2,0,0.3,0,0.4,0.1
			c0.3,0.3-1.6,3.6-5.9,10.1c-2,3-2.9,5.4-2.9,7c0,0.8,0.2,1.5,0.7,2.1c0.5,0.6,1.1,0.9,1.9,0.9c1.8,0,4.2-1.3,7.3-4
			c1.4-1.2,2.7-2.5,4.1-3.9c-0.2,0.8-0.3,1.7-0.3,2.5c0,3.6,1.4,5.5,4.3,5.7c3.5,0.3,7.2-1.4,11.2-5c0.4-0.4,0.8-0.8,1.2-1.2
			c-1.4,2.3-2.5,3.8-3.1,4.5c-0.2,0.2-0.2,0.5-0.1,0.8c0.2,0.3,0.4,0.5,0.7,0.6c0.6,0.3,1.2,0,1.7-0.7c2.4-3.2,4.4-6.2,6.1-9
			c1.4-2.3,2.4-3.9,2.9-4.6c1-1.1,2.2-2.3,3.7-3.6c2-1.6,3.4-2.3,4.4-2.3c0.8,0,1.2,0.5,1.2,1.4c0,1.6-1.2,4.8-3.5,9.5
			c-1.2,2.5-2.9,5.3-5.2,8.5c-0.2,0.3,0,0.6,0.7,0.8c0.9,0.3,1.6,0.2,1.9-0.3c2.1-3.3,3.6-5.8,4.7-7.5c1.4-2.2,3.1-4.3,5.1-6.4
			c3.9-4,6.5-6,7.9-6c0.2,0,0.4,0.1,0.6,0.2c0.3,0.3-1.6,3.6-5.9,10.1c-2,3-2.9,5.4-2.9,7c0,0.8,0.2,1.5,0.7,2.1
			c0.5,0.6,1.1,0.9,1.9,0.9c1.8,0,4.2-1.3,7.3-4c1.4-1.2,2.7-2.5,4.1-3.9c-0.2,0.8-0.3,1.7-0.3,2.5c0,3.6,1.4,5.5,4.3,5.7
			c3.5,0.3,7.2-1.4,11.2-5c0.4-0.4,0.8-0.7,1.2-1.1c-1.6,2.5-2.6,4-3,4.4c-0.2,0.2-0.2,0.4-0.1,0.7c0.2,0.3,0.4,0.6,0.7,0.7
			c0.7,0.3,1.2,0.1,1.7-0.5c4.6-5.6,8.7-10.2,12.1-13.7c3.9-4,6.6-6,8-6c0.2,0,0.3,0,0.4,0.1c0.3,0.3-1.7,3.6-5.9,10.1
			c-2,3-2.9,5.4-2.9,7c0,0.8,0.2,1.5,0.7,2.1c0.5,0.6,1.1,0.9,1.9,0.9c1.8,0,4.2-1.3,7.4-4c1-0.9,2-1.9,3-3
			c-0.8,1.9-1.2,3.3-1.2,4.2c0,2,0.9,2.9,2.9,2.9c2.2,0,5.2-1.6,8.8-4.6c1.1-1.1,2-2.1,2.9-3c-1,2.1-1.5,3.7-1.5,4.8
			c0,1.9,0.9,2.9,2.9,2.9c2.2,0,5.2-1.6,8.8-4.6c1.4-1.4,2.5-2.6,3.6-3.8c-0.2,1-0.3,1.9-0.3,2.8c0,3.6,1.4,5.5,4.3,5.7
			c3.5,0.3,7.3-1.4,11.2-5c1.4-1.3,2.6-2.5,3.7-3.7c-0.1,1-0.2,1.9-0.2,2.8c0,3.7,1.1,5.6,3.4,5.6c2,0,4.8-1.6,8.3-4.7
			c3.6-3.8,6.1-6.5,7.5-8.3l-0.7-1.5c-2.8,3.4-4.9,5.7-6.3,7c-3.5,3.3-6,4.9-7.5,4.9c-1.3,0-2-1.3-2-3.8c0-1.4,0.3-3.5,0.9-6.2
			c0,0,0.1-0.1,0.1-0.1c3.2-2.9,5.1-4.7,5.8-5.4c2.1-2.1,4.2-4.6,6.4-7.7c1.4-2,2.6-3.9,3.7-5.6c-0.5-0.4-1-0.8-1.3-1.1
			c-1.1,1.8-2.4,3.7-4,6c-2.1,2.9-4.1,5.4-6,7.3c-1.3,1.2-2.6,2.5-3.9,3.7c2-5.3,4.3-10,6.8-14.2c2-3.3,4-6.1,5.9-8.4
			c2.3-2.8,3.8-4,4.6-3.6c0.2,0.1,0.3,0.4,0.3,0.8c0,0.3,0,0.6-0.1,1c0.3,0.4,0.8,1,1.2,2c0.9-2,1.3-3.6,1.3-4.8
			c0-1.5-0.6-2.3-1.9-2.3C626.2,510,623.6,512.2,620.3,516.4 M362.6,536.2c-2.2-0.3-4.7-1.3-7.4-3.1c2.6-0.7,5.2-1.1,7.7-1.2
			c1.4-0.1,2.8,0.1,4.2,0.5c1.6,0.5,2.4,1.2,2.3,2c-0.2,1.3-1.6,1.9-4.2,1.9C364.3,536.3,363.5,536.3,362.6,536.2 M375.3,496.4
			c-8.1,2.5-15.2,6.1-21.1,10.9c-6,4.7-9.2,9.2-9.5,13.4c-0.4,4.3,1.6,8.2,5.9,11.8c-8.4,2.6-13.1,6.6-14.4,11.8
			c-0.2,0.9-0.3,1.7-0.3,2.5c0,4,2.1,7.4,6.3,10.4c4.2,2.9,9.8,5,16.9,6.1c2.1,0.3,4.3,0.5,6.5,0.5c5.8,0,11.5-1.1,17.1-3.3
			c4.8-1.9,8.4-4.1,10.9-6.7c0.5-0.5,0.7-0.9,0.4-1.3c-0.3-0.6-1-0.4-2,0.6c-1.7,1.5-4.7,3.2-8.9,5.1c-6,2.7-11.9,4-17.5,4
			c-2.1,0-4.1-0.2-6-0.6c-14-2.7-21-7.6-21-14.5c0-0.7,0.1-1.5,0.2-2.2c0.4-2.2,2-4.3,4.6-6.3c2.4-1.9,5.4-3.4,9.1-4.6
			c4.1,2.7,8.3,4.1,12.6,4.1c4.2,0,6.3-1.2,6.4-3.6c0.1-1-0.7-1.9-2.4-2.7c-1.7-0.9-3.8-1.2-6.3-1.2c-3.1,0.1-6.3,0.5-9.7,1.3
			c-4-3.2-5.9-6.6-5.5-10.4c0.4-4.2,2.9-8.4,7.7-12.4c5.1-4.5,12.1-8.1,21.1-11c7.1-2.3,14.2-3.5,21.3-3.5c4.3,0,7.9,0.5,10.9,1.4
			c3,0.9,4.8,2.2,5.5,3.8c0.3,0.7,0.5,1.6,0.5,2.7c0,3.4-1.3,7.4-3.9,12.1c-3,5.2-7.1,9.8-12.1,13.8c-0.5,0.4-0.7,0.7-0.7,1.1
			c0,0.4,0.2,0.6,0.5,0.6c0.4,0.1,0.9,0,1.5-0.5c3.8-3.1,7.4-7.1,11.1-12c4.6-6.2,6.9-11.3,6.9-15.5c0-1.9-0.5-3.4-1.5-4.7
			c-2.4-3.1-8-4.7-16.8-4.7C391.4,492.6,383.4,493.9,375.3,496.4" />
		</defs>
		<use xlink:href="#SVGID_27_" style="overflow:visible;" />
		<clipPath id="SVGID_8_">
			<use xlink:href="#SVGID_27_" style="overflow:visible;" />
		</clipPath>
		<rect x="335.9" y="492.6" class="st3" width="294.1" height="71.1" />
	</g>
	<path class="st5" d="M629.4,520.2c-0.8,0.2-1.7,0.7-2.3,1c-0.4,0.2-0.8,0.4-1.2,0.4c-1.1,0.3-1.9,0.1-1.9,0.1c0,0-0.2,0-0.4,0
	c-0.3,0.1-0.8,0.2-1.3,0.4c0,0,0,0-0.1,0c-0.7,0.2-1.3,0.2-1.9,0.3c-0.2,0-0.3,0-0.5,0c1.5-2.1,4.3-5.9,6.6-7.8
	c0.4,0.4,0.6,0.7,0.7,0.9l0,0C628.5,517.5,629.2,519.6,629.4,520.2" />
	<path class="st5" d="M632.4,521.1c0,0.3,0,0.5,0.1,0.8l0,0.2c0.2,0.7,0,0.5,0,1.3c0,0.7,0.2,1.6,0.3,1.8c-0.7,1-1.9,1.4-2.5,1.6
	l-0.3,0.1c0,0-0.1-0.1-0.2-0.1c-0.2-0.2-0.5-0.5-0.9-0.9c-0.2-0.2-0.5-0.4-0.9-0.7c-0.2-0.1-0.3-0.3-0.5-0.4
	c-0.2-0.1-0.3-0.3-0.5-0.4c-0.8-0.7-1.4-1.4-1.8-1.7c-0.1-0.1-0.2-0.1-0.2-0.2c0.3,0,0.7-0.1,1.1-0.2c0.4-0.1,0.8-0.2,1.3-0.5
	c0.7-0.3,1.6-0.8,2.5-1l0.3-0.1c0.2,0,0.4-0.1,0.6-0.1C631.3,520.5,631.9,520.7,632.4,521.1" />
	<path class="st5" d="M650.5,545.3c0.1,0.2-0.2,0.5-0.5,0.5l-0.2,0c-0.3,0-1.5,0-2-0.5c-0.4-0.4-0.5-0.3-1.4-1
	c-0.9-0.6-1.3-0.7-2.5-1.7c-1.2-1-2-1.5-4.4-3.1c-2.4-1.6-2.6-1.9-3.8-2.9c-1.2-1.1-2.2-2.1-3.1-3.1c-0.9-1.1-1.3-2.4-1.4-3.4
	c-0.1-0.9-0.5-1.7-0.8-2.4c-0.1-0.2-0.2-0.4-0.2-0.5c0,0,0,0,0.1,0c0.7-0.2,2-0.6,2.9-1.8c0.2,0.2,0.5,0.5,1,0.9
	c1.1,0.8,1.7,0.9,2.9,1.8c1.2,0.9,1,1,1.9,1.8c0.9,0.8,4,3.5,4.9,4.4c0.9,0.9,1.9,1.9,3.2,3.6c1.3,1.7,1.9,2.8,2.4,3.8
	C650,542.8,650.4,545,650.5,545.3" />
	<path class="st5" d="M664.1,519.8c0,0.4-0.3,0.5-0.9,0.7s-0.9,0.3-1.4,0.5c-0.1,0.1-0.2,0.1-0.3,0.1c-0.4,0.1-0.7,0.1-1.1,0.1
	c-0.5,0.1-0.4,0-1,0.2c-0.1,0-0.1,0-0.2,0c-0.7,0.2-1.7,0.6-2.6,1c-1,0.4-2.8,1.2-4.9,2c-0.6,0.2-1,0.3-1.4,0.4
	c-1,0.3-1.5,0.2-2.3,0.3c-1.1,0.2-2.2,0.3-3.9-0.1c-1.7-0.3-1.4-0.7-2.6-1c-1.3-0.3-1.7-0.6-2.7-1.1c-1-0.4-3.1-1.1-4.4-1.6
	c-0.7-0.3-1.2-0.5-1.5-0.7c-0.6-0.5-1.2-0.7-1.8-0.7c-0.2,0-0.4,0-0.6,0c-0.2,0-0.4,0-0.5,0.1c-0.1-0.4-0.4-1.1-0.8-2.1
	c0.3-0.3,0.7-0.6,1.1-0.9l0,0c0.8-0.4,1.4-0.7,1.9-0.8c0.2-0.1,0.5-0.1,0.6-0.2l0,0c1-0.2,1.6-0.2,2.6-0.3c1.6-0.2,2,0.3,4.2,0.3
	c2.2-0.1,3.5-0.3,5.2-0.2c1.7,0.1,2.6-0.1,4.4-0.4c1.8-0.4,3.6,0.5,5.8,0.9c2.2,0.4,4.6,1.3,5.6,1.6c1,0.3,1.4,0.7,2,1.3
	C663.1,519.9,664.1,519.4,664.1,519.8" />
</svg>